<svg width="28" height="28" viewBox="0 0 28 28" fill="none" xmlns="http://www.w3.org/2000/svg">
<path d="M21.2239 5.92301C20.6654 5.52914 19.9832 5.34959 19.307 5.53076L9.33393 8.20305C8.82682 8.33893 8.57933 8.76758 8.71521 9.27469C8.85109 9.7818 9.27975 10.0293 9.78686 9.89341L19.6754 7.24377C19.8445 7.19847 20.0362 7.2377 20.0588 7.32222C20.1886 7.46861 20.3184 7.61499 20.2792 7.80668L20.4774 13.2793C20.5348 14.1698 19.9327 14.9652 19.0875 15.1917L13.6784 16.6411C12.8332 16.8675 12.0212 16.5416 11.5411 15.7644L10.2988 13.8326L6.96136 8.47643C6.15378 7.15286 4.6369 6.56286 3.2001 6.94785C2.69299 7.08373 2.44551 7.51239 2.58138 8.01949C2.71726 8.5266 3.14592 8.77409 3.65303 8.63821C4.32917 8.45704 5.14119 8.78297 5.4914 9.41382L6.60389 11.1992L10.0712 16.7018C10.9014 18.1098 12.5255 18.7617 14.1313 18.3314L19.7095 16.8368C21.3998 16.3838 22.4351 14.8382 22.4274 13.1192L22.2292 7.64653C22.1552 7.03225 21.805 6.4014 21.2239 5.92301Z" fill="#363A33"/>
<path d="M13.681 19.358C12.4977 19.675 11.7552 20.961 12.0723 22.1442C12.3893 23.3275 13.6753 24.0699 14.8586 23.7529C16.0418 23.4358 16.7843 22.1499 16.4672 20.9666C16.1502 19.7834 14.8642 19.0409 13.681 19.358ZM14.4056 22.0625C14.1521 22.1305 13.8306 21.9449 13.7627 21.6913C13.6947 21.4378 13.8803 21.1163 14.1339 21.0483C14.3874 20.9804 14.7089 21.166 14.7769 21.4196C14.8448 21.6731 14.6592 21.9946 14.4056 22.0625Z" fill="#363A33" stroke="#363A33" stroke-width="0.4"/>
<path d="M20.3593 17.5689C19.176 17.886 18.4336 19.1719 18.7506 20.3552C19.0677 21.5384 20.3536 22.2809 21.5369 21.9638C22.7201 21.6468 23.4626 20.3608 23.1455 19.1776C22.8285 17.9943 21.5425 17.2519 20.3593 17.5689ZM21.084 20.2735C20.8304 20.3414 20.5089 20.1558 20.441 19.9022C20.373 19.6487 20.5586 19.3272 20.8122 19.2593C21.0658 19.1913 21.3872 19.3769 21.4552 19.6305C21.5231 19.884 21.3375 20.2055 21.084 20.2735Z" fill="#363A33" stroke="#363A33" stroke-width="0.4"/>
</svg>
